<svg xmlns="http://www.w3.org/2000/svg" viewBox="0 0 553.4 123.2"><path d="M545.9 61.1c-.5 1.1-1.1 2.1-1.9 2.9-.8.8-1.7 1.5-2.8 2-1 .5-2.1.7-3.2.7s-2.2-.2-3.2-.7c-1-.5-2-1.1-2.8-2-.8-.8-1.4-1.8-1.9-2.9-.5-1.1-.7-2.3-.7-3.5 0-1.2.2-2.4.7-3.5.5-1.1 1.1-2.1 1.9-2.9.8-.8 1.7-1.5 2.8-2 1-.5 2.1-.7 3.2-.7s2.2.2 3.2.7c1 .5 2 1.1 2.8 2 .8.8 1.4 1.8 1.9 2.9.5 1.1.7 2.3.7 3.5.1 1.2-.2 2.4-.7 3.5M544 43.4c-1.9-.8-3.9-1.2-6.1-1.2-2.2 0-4.2.4-6.1 1.2-1.9.8-3.5 1.9-4.9 3.3-1.4 1.4-2.5 3-3.3 4.9-.8 1.9-1.2 3.9-1.2 6s.4 4.2 1.2 6c.8 1.9 1.9 3.5 3.3 4.9 1.4 1.4 3 2.5 4.9 3.3 1.9.8 3.9 1.2 6.1 1.2 2.2 0 4.2-.4 6.1-1.2 1.9-.8 3.5-1.9 4.9-3.3 1.4-1.4 2.5-3 3.3-4.9.8-1.9 1.2-3.9 1.2-6s-.4-4.2-1.2-6c-.8-1.9-1.9-3.5-3.3-4.9-1.4-1.4-3-2.5-4.9-3.3M299.7 41h.4l28.7 82.1h33.1L390.7 40h.4v83.1h28.4V0h-42.6l-30.4 94.4h-.4L313.9 0h-42.5v123.1h28.3zm-107.6-7.2h.4l17.3 50.3h-35.6l17.9-50.3zm-25.7 72.9h51.4l5.6 16.4h30.9L208.1 0h-31l-46.6 123.1h30l5.9-16.4zM30.3 25.5h21.5c7.4 0 13.7 1.1 18.7 3.2 5.1 2.1 9.1 5.1 12.2 9.1 3.1 4 5.3 8.7 6.6 14.3 1.3 5.6 2 11.8 2 18.7 0 7.5-1 13.9-2.9 19.2-1.9 5.2-4.5 9.5-7.7 12.8-3.2 3.3-6.9 5.6-10.9 7-4.1 1.4-8.3 2.1-12.7 2.1H30.3V25.5zm70.3 97.6c2-1.7 3.9-3.6 5.6-5.7 5.2-6.2 9.1-13.5 11.6-21.9 2.6-8.5 3.9-17.7 3.9-27.7 0-11.4-1.6-21.3-4.7-29.8s-7.5-15.5-13.1-21.2C98.3 11.3 91.7 7 84 4.2 76.4 1.4 68.1 0 59.3 0H0v123.1h100.6zm357.5-51.9h.3l32.3 52h23.4v-81H496V101h-.2l-36.6-58.8h-19.1v81h18z"/></svg>