<svg viewBox="0 0 472 102" xmlns="http://www.w3.org/2000/svg" fill-rule="evenodd" clip-rule="evenodd" stroke-linejoin="round" stroke-miterlimit="1.414"><g transform="matrix(.99892 0 0 .98822 -6.17 -15.289)"><clipPath id="a"><path d="M6.218 15.477h101.295v103.21H6.218z"/></clipPath><g clip-path="url(#a)"><path d="M73.534 101.145c-2.672 2.725-5.717 4.676-9.136 5.851a32.315 32.315 0 0 1-10.578 1.763H31.381V36.634h17.951c6.196 0 11.405.881 15.627 2.644 4.22 1.763 7.613 4.303 10.178 7.613 2.564 3.314 4.407 7.293 5.529 11.941 1.122 4.648 1.683 9.857 1.683 15.627 0 6.306-.801 11.648-2.404 16.028-1.603 4.383-3.741 7.934-6.411 10.658m21.077 12.261c4.327-5.128 7.558-11.219 9.696-18.271 2.136-7.052 3.206-14.746 3.206-23.08 0-9.509-1.31-17.791-3.927-24.843-2.62-7.052-6.251-12.927-10.899-17.631-4.648-4.7-10.153-8.226-16.508-10.578-6.359-2.349-13.223-3.526-20.596-3.526H6.218v103.21h83.104a43.823 43.823 0 0 0 5.289-5.281" fill="#fff" fill-rule="nonzero"/></g><path d="M168.739 43.686h.319l14.427 41.992h-29.653l14.907-41.992zm-21.478 60.745h42.795l4.841 14.256h25.739l-38.595-103.21h-25.804l-39.03 103.21h25.034l5.02-14.256zm111.072-54.815h.321l24.127 69.071h27.198l24.166-69.872h.32v69.872h23.561V15.477h-35.422l-25.323 78.696h-.321l-26.766-78.696h-35.422v103.21h23.561V49.616zm132.859 26.4h.204l26.514 42.671h19.954V51.862h-15.046v49.025h-.205l-30.499-49.025h-15.967v66.825h15.045V76.016zm70.362 2.783c-5.39 0-9.758-4.37-9.758-9.758 0-5.388 4.369-9.757 9.758-9.757 5.389 0 9.758 4.369 9.758 9.757s-4.37 9.758-9.758 9.758m0-26.895c-1.17 0-2.312.117-3.416.34-7.828 1.584-13.719 8.503-13.719 16.797 0 9.461 7.67 17.135 17.135 17.135 9.466 0 17.135-7.674 17.135-17.135 0-9.464-7.67-17.137-17.135-17.137" fill="#fff" fill-rule="nonzero"/></g></svg>