<?xml version="1.0" encoding="utf-8"?>
<!-- Generator: Adobe Illustrator 19.0.0, SVG Export Plug-In . SVG Version: 6.00 Build 0)  -->
<svg version="1.1" id="Layer_1" xmlns="http://www.w3.org/2000/svg" xmlns:xlink="http://www.w3.org/1999/xlink" x="0px" y="0px"
	 viewBox="0 0 40 40" style="enable-background:new 0 0 40 40;" xml:space="preserve">
<style type="text/css">
	.st0{fill:#FFFFFF;}
</style>
<g id="XMLID_2_">
	<path id="XMLID_3_" class="st0" d="M8.8,20c0-0.3,0.1-0.6,0.4-0.9L26.8,1.5c0.3-0.3,0.5-0.4,0.9-0.4c0.3,0,0.6,0.1,0.9,0.4l1.9,1.9
		c0.3,0.3,0.4,0.5,0.4,0.9c0,0.3-0.1,0.6-0.4,0.9L15.5,20l14.9,14.9c0.3,0.3,0.4,0.5,0.4,0.9c0,0.3-0.1,0.6-0.4,0.9l-1.9,1.9
		c-0.3,0.3-0.5,0.4-0.9,0.4c-0.3,0-0.6-0.1-0.9-0.4L9.1,20.9C8.9,20.6,8.8,20.3,8.8,20z"/>
</g>
</svg>
