<?xml version="1.0" standalone="no"?>
<!DOCTYPE svg PUBLIC "-//W3C//DTD SVG 1.1//EN" "http://www.w3.org/Graphics/SVG/1.1/DTD/svg11.dtd">
<svg width="100%" height="100%" viewBox="0 0 472 102" version="1.1" xmlns="http://www.w3.org/2000/svg" xmlns:xlink="http://www.w3.org/1999/xlink" xml:space="preserve" style="fill-rule:evenodd;clip-rule:evenodd;stroke-linejoin:round;stroke-miterlimit:1.41421;">
    <g id="Layer 1" transform="matrix(0.998916,2.61973e-18,2.61973e-18,0.98822,-6.17047,-15.289)">
        <clipPath id="_clip1">
            <rect x="6.218" y="15.477" width="101.295" height="103.21"/>
        </clipPath>
        <g clip-path="url(#_clip1)">
            <path d="M73.534,101.145C70.862,103.87 67.817,105.821 64.398,106.996C60.977,108.172 57.451,108.759 53.82,108.759L31.381,108.759L31.381,36.634L49.332,36.634C55.528,36.634 60.737,37.515 64.959,39.278C69.179,41.041 72.572,43.581 75.137,46.891C77.701,50.205 79.544,54.184 80.666,58.832C81.788,63.48 82.349,68.689 82.349,74.459C82.349,80.765 81.548,86.107 79.945,90.487C78.342,94.87 76.204,98.421 73.534,101.145M94.611,113.406C98.938,108.278 102.169,102.187 104.307,95.135C106.443,88.083 107.513,80.389 107.513,72.055C107.513,62.546 106.203,54.264 103.586,47.212C100.966,40.16 97.335,34.285 92.687,29.581C88.039,24.881 82.534,21.355 76.179,19.003C69.82,16.654 62.956,15.477 55.583,15.477L6.218,15.477L6.218,118.687L89.322,118.687C91.233,117.079 92.997,115.319 94.611,113.406" style="fill:black;fill-rule:nonzero;"/>
        </g>
        <path d="M168.739,43.686L169.058,43.686L183.485,85.678L153.832,85.678L168.739,43.686ZM147.261,104.431L190.056,104.431L194.897,118.687L220.636,118.687L182.041,15.477L156.237,15.477L117.207,118.687L142.241,118.687L147.261,104.431Z" style="fill:black;fill-rule:nonzero;"/>
        <path d="M258.333,49.616L258.654,49.616L282.781,118.687L309.979,118.687L334.145,48.815L334.465,48.815L334.465,118.687L358.026,118.687L358.026,15.477L322.604,15.477L297.281,94.173L296.96,94.173L270.194,15.477L234.772,15.477L234.772,118.687L258.333,118.687L258.333,49.616Z" style="fill:black;fill-rule:nonzero;"/>
        <path d="M391.192,76.016L391.396,76.016L417.91,118.687L437.864,118.687L437.864,51.862L422.818,51.862L422.818,100.887L422.613,100.887L392.114,51.862L376.147,51.862L376.147,118.687L391.192,118.687L391.192,76.016Z" style="fill:black;fill-rule:nonzero;"/>
        <g transform="matrix(0.895317,0,0,0.895317,46.5232,9.02118)">
            <path d="M463.557,77.936C457.538,77.936 452.659,73.056 452.659,67.038C452.659,61.019 457.538,56.14 463.557,56.14C469.576,56.14 474.456,61.019 474.456,67.038C474.456,73.056 469.576,77.936 463.557,77.936M463.557,47.897C462.251,47.897 460.975,48.028 459.742,48.277C450.999,50.046 444.419,57.774 444.419,67.038C444.419,77.605 452.985,86.176 463.557,86.176C474.13,86.176 482.696,77.605 482.696,67.038C482.696,56.467 474.13,47.897 463.557,47.897" style="fill:black;fill-rule:nonzero;"/>
        </g>
    </g>
</svg>
