<?xml version="1.0" encoding="utf-8"?>
<!-- Generator: Adobe Illustrator 19.0.0, SVG Export Plug-In . SVG Version: 6.00 Build 0)  -->
<svg version="1.1" id="Layer_1" xmlns="http://www.w3.org/2000/svg" xmlns:xlink="http://www.w3.org/1999/xlink" x="0px" y="0px"
	 viewBox="0 0 40 40" style="enable-background:new 0 0 40 40;" xml:space="preserve">
<style type="text/css">
	.st0{fill:#FFFFFF;}
</style>
<g id="XMLID_2_">
	<path id="XMLID_3_" class="st0" d="M30.8,20c0,0.3-0.1,0.6-0.4,0.9L12.8,38.5c-0.3,0.3-0.5,0.4-0.9,0.4c-0.3,0-0.6-0.1-0.9-0.4
		l-1.9-1.9c-0.3-0.3-0.4-0.5-0.4-0.9c0-0.3,0.1-0.6,0.4-0.9L24,20L9.1,5.1C8.9,4.9,8.8,4.6,8.8,4.3c0-0.3,0.1-0.6,0.4-0.9L11,1.5
		c0.3-0.3,0.5-0.4,0.9-0.4c0.3,0,0.6,0.1,0.9,0.4l17.6,17.6C30.7,19.4,30.8,19.7,30.8,20z"/>
</g>
</svg>
